<svg width="35" height="49" viewBox="0 0 35 49" fill="none" xmlns="http://www.w3.org/2000/svg">
<path d="M35 17.5C35 27.165 23.5156 43.2031 17.5 48.6719C9.84375 42.6562 0 27.165 0 17.5C0 7.83502 7.83502 0 17.5 0C27.165 0 35 7.83502 35 17.5Z" fill="#4CC864"/>
<circle cx="17.6411" cy="17.6416" r="12.625" fill="#0C9727" stroke="white"/>
<path d="M17.4375 15.25C16.8812 15.25 16.3375 15.415 15.875 15.724C15.4124 16.033 15.052 16.4723 14.8391 16.9862C14.6262 17.5001 14.5705 18.0656 14.679 18.6112C14.7876 19.1568 15.0554 19.6579 15.4488 20.0512C15.8421 20.4446 16.3432 20.7124 16.8888 20.821C17.4344 20.9295 17.9999 20.8738 18.5138 20.6609C19.0277 20.448 19.467 20.0876 19.776 19.625C20.085 19.1625 20.25 18.6188 20.25 18.0625C20.25 17.3166 19.9537 16.6012 19.4262 16.0738C18.8988 15.5463 18.1834 15.25 17.4375 15.25ZM17.4375 19.75C17.1037 19.75 16.7775 19.651 16.5 19.4656C16.2225 19.2802 16.0062 19.0166 15.8785 18.7083C15.7507 18.3999 15.7173 18.0606 15.7824 17.7333C15.8475 17.4059 16.0083 17.1053 16.2443 16.8693C16.4803 16.6333 16.7809 16.4725 17.1083 16.4074C17.4356 16.3423 17.7749 16.3757 18.0833 16.5035C18.3916 16.6312 18.6552 16.8475 18.8406 17.125C19.026 17.4025 19.125 17.7287 19.125 18.0625C19.125 18.5101 18.9472 18.9393 18.6307 19.2557C18.3143 19.5722 17.8851 19.75 17.4375 19.75ZM25.3125 13H9.5625C9.41332 13 9.27024 13.0593 9.16475 13.1648C9.05926 13.2702 9 13.4133 9 13.5625V22.5625C9 22.7117 9.05926 22.8548 9.16475 22.9602C9.27024 23.0657 9.41332 23.125 9.5625 23.125H25.3125C25.4617 23.125 25.6048 23.0657 25.7102 22.9602C25.8157 22.8548 25.875 22.7117 25.875 22.5625V13.5625C25.875 13.4133 25.8157 13.2702 25.7102 13.1648C25.6048 13.0593 25.4617 13 25.3125 13ZM22.0535 22H12.8215C12.6326 21.3613 12.287 20.78 11.816 20.309C11.345 19.838 10.7637 19.4924 10.125 19.3035V16.8215C10.7637 16.6326 11.345 16.287 11.816 15.816C12.287 15.345 12.6326 14.7637 12.8215 14.125H22.0535C22.2424 14.7637 22.588 15.345 23.059 15.816C23.53 16.287 24.1113 16.6326 24.75 16.8215V19.3035C24.1113 19.4924 23.53 19.838 23.059 20.309C22.588 20.78 22.2424 21.3613 22.0535 22ZM24.75 15.6276C24.0753 15.3375 23.5375 14.7997 23.2474 14.125H24.75V15.6276ZM11.6276 14.125C11.3375 14.7997 10.7997 15.3375 10.125 15.6276V14.125H11.6276ZM10.125 20.4974C10.7997 20.7875 11.3375 21.3253 11.6276 22H10.125V20.4974ZM23.2474 22C23.5375 21.3253 24.0753 20.7875 24.75 20.4974V22H23.2474Z" fill="white"/>
</svg>
