<svg width="35" height="49" viewBox="0 0 35 49" fill="none" xmlns="http://www.w3.org/2000/svg">
<path d="M35 17.7188C35 27.3837 23.5156 43.4219 17.5 48.8906C9.84375 42.875 0 27.3837 0 17.7188C0 8.05377 7.83502 0.21875 17.5 0.21875C27.165 0.21875 35 8.05377 35 17.7188Z" fill="#4CC864"/>
<circle cx="17.6411" cy="17.8599" r="12.625" fill="#0C9727" stroke="white"/>
<path d="M24.1727 15.8761H10.8275C10.1953 15.8761 9.92428 15.1873 10.4211 14.8599L17.0936 10.4906C17.2168 10.4181 17.3572 10.3799 17.5001 10.3799C17.643 10.3799 17.7833 10.4181 17.9065 10.4906L24.5791 14.8599C25.0759 15.1873 24.8049 15.8761 24.1727 15.8761Z" stroke="white" stroke-linecap="round" stroke-linejoin="round"/>
<path d="M24.2743 22.0859H10.7259C10.4141 22.0859 10.1614 22.3387 10.1614 22.6505V24.344C10.1614 24.6558 10.4141 24.9085 10.7259 24.9085H24.2743C24.5861 24.9085 24.8388 24.6558 24.8388 24.344V22.6505C24.8388 22.3387 24.5861 22.0859 24.2743 22.0859Z" stroke="white" stroke-linecap="round" stroke-linejoin="round"/>
<path d="M11.8547 15.876V22.0857M14.6773 15.876V22.0857M17.4999 15.876V22.0857M20.3225 15.876V22.0857M23.1451 15.876V22.0857" stroke="white" stroke-linecap="round" stroke-linejoin="round"/>
</svg>
