<svg width="31" height="44" viewBox="0 0 31 44" fill="none" xmlns="http://www.w3.org/2000/svg">
<path d="M31 15.5C31 24.0604 20.8281 38.2656 15.5 43.1094C8.71875 37.7812 0 24.0604 0 15.5C0 6.93959 6.93959 0 15.5 0C24.0604 0 31 6.93959 31 15.5Z" fill="#458FFF"/>
<circle cx="15.625" cy="15.625" r="11.125" fill="#1E4BD2" stroke="white"/>
<path d="M15.4375 13.25C14.8812 13.25 14.3375 13.415 13.875 13.724C13.4124 14.033 13.052 14.4723 12.8391 14.9862C12.6262 15.5001 12.5705 16.0656 12.679 16.6112C12.7876 17.1568 13.0554 17.6579 13.4488 18.0512C13.8421 18.4446 14.3432 18.7124 14.8888 18.821C15.4344 18.9295 15.9999 18.8738 16.5138 18.6609C17.0277 18.448 17.467 18.0876 17.776 17.625C18.085 17.1625 18.25 16.6188 18.25 16.0625C18.25 15.3166 17.9537 14.6012 17.4262 14.0738C16.8988 13.5463 16.1834 13.25 15.4375 13.25ZM15.4375 17.75C15.1037 17.75 14.7775 17.651 14.5 17.4656C14.2225 17.2802 14.0062 17.0166 13.8785 16.7083C13.7507 16.3999 13.7173 16.0606 13.7824 15.7333C13.8475 15.4059 14.0083 15.1053 14.2443 14.8693C14.4803 14.6333 14.7809 14.4725 15.1083 14.4074C15.4356 14.3423 15.7749 14.3757 16.0833 14.5035C16.3916 14.6312 16.6552 14.8475 16.8406 15.125C17.026 15.4025 17.125 15.7287 17.125 16.0625C17.125 16.5101 16.9472 16.9393 16.6307 17.2557C16.3143 17.5722 15.8851 17.75 15.4375 17.75ZM23.3125 11H7.5625C7.41332 11 7.27024 11.0593 7.16475 11.1648C7.05926 11.2702 7 11.4133 7 11.5625V20.5625C7 20.7117 7.05926 20.8548 7.16475 20.9602C7.27024 21.0657 7.41332 21.125 7.5625 21.125H23.3125C23.4617 21.125 23.6048 21.0657 23.7102 20.9602C23.8157 20.8548 23.875 20.7117 23.875 20.5625V11.5625C23.875 11.4133 23.8157 11.2702 23.7102 11.1648C23.6048 11.0593 23.4617 11 23.3125 11ZM20.0535 20H10.8215C10.6326 19.3613 10.287 18.78 9.816 18.309C9.34503 17.838 8.76372 17.4924 8.125 17.3035V14.8215C8.76372 14.6326 9.34503 14.287 9.816 13.816C10.287 13.345 10.6326 12.7637 10.8215 12.125H20.0535C20.2424 12.7637 20.588 13.345 21.059 13.816C21.53 14.287 22.1113 14.6326 22.75 14.8215V17.3035C22.1113 17.4924 21.53 17.838 21.059 18.309C20.588 18.78 20.2424 19.3613 20.0535 20ZM22.75 13.6276C22.0753 13.3375 21.5375 12.7997 21.2474 12.125H22.75V13.6276ZM9.62758 12.125C9.33746 12.7997 8.79969 13.3375 8.125 13.6276V12.125H9.62758ZM8.125 18.4974C8.79969 18.7875 9.33746 19.3253 9.62758 20H8.125V18.4974ZM21.2474 20C21.5375 19.3253 22.0753 18.7875 22.75 18.4974V20H21.2474Z" fill="white"/>
</svg>
