<svg width="31" height="44" viewBox="0 0 31 44" fill="none" xmlns="http://www.w3.org/2000/svg">
<path d="M31 15.5C31 24.0604 20.8281 38.2656 15.5 43.1094C8.71875 37.7812 0 24.0604 0 15.5C0 6.93959 6.93959 0 15.5 0C24.0604 0 31 6.93959 31 15.5Z" fill="#458FFF"/>
<circle cx="15.625" cy="15.625" r="11.125" fill="#1E4BD2" stroke="white"/>
<path d="M21.4101 13.868H9.59007C9.03007 13.868 8.79007 13.258 9.23007 12.968L15.1401 9.09804C15.2492 9.03385 15.3735 9 15.5001 9C15.6267 9 15.751 9.03385 15.8601 9.09804L21.7701 12.968C22.2101 13.258 21.9701 13.868 21.4101 13.868Z" stroke="white" stroke-linecap="round" stroke-linejoin="round"/>
<path d="M21.5 19.3682H9.5C9.22386 19.3682 9 19.592 9 19.8682V21.3682C9 21.6443 9.22386 21.8682 9.5 21.8682H21.5C21.7761 21.8682 22 21.6443 22 21.3682V19.8682C22 19.592 21.7761 19.3682 21.5 19.3682Z" stroke="white" stroke-linecap="round" stroke-linejoin="round"/>
<path d="M10.5 13.8682V19.3682M13 13.8682V19.3682M15.5 13.8682V19.3682M18 13.8682V19.3682M20.5 13.8682V19.3682" stroke="white" stroke-linecap="round" stroke-linejoin="round"/>
</svg>
