<svg width="13" height="14" viewBox="0 0 13 14" xmlns="http://www.w3.org/2000/svg">
<path d="M9.1191 4.82526H8.47789C8.33844 4.82526 8.20582 4.89225 8.12379 5.00709L5.97457 7.98756L5.00113 6.63678C4.9191 6.5233 4.78785 6.45494 4.64703 6.45494H4.00582C3.91695 6.45494 3.865 6.55612 3.91695 6.62858L5.62047 8.99108C5.66071 9.04725 5.71376 9.09301 5.77522 9.12459C5.83669 9.15616 5.90479 9.17263 5.97389 9.17263C6.04298 9.17263 6.11109 9.15616 6.17255 9.12459C6.23401 9.09301 6.28706 9.04725 6.3273 8.99108L9.2066 4.99889C9.25992 4.92643 9.20797 4.82526 9.1191 4.82526Z"/>
<path d="M6.5625 0.874512C3.18008 0.874512 0.4375 3.61709 0.4375 6.99951C0.4375 10.3819 3.18008 13.1245 6.5625 13.1245C9.94492 13.1245 12.6875 10.3819 12.6875 6.99951C12.6875 3.61709 9.94492 0.874512 6.5625 0.874512ZM6.5625 12.0854C3.7543 12.0854 1.47656 9.80772 1.47656 6.99951C1.47656 4.19131 3.7543 1.91357 6.5625 1.91357C9.3707 1.91357 11.6484 4.19131 11.6484 6.99951C11.6484 9.80772 9.3707 12.0854 6.5625 12.0854Z"/>
</svg>
