<svg width="16" height="16" viewBox="0 0 16 16" fill="none" xmlns="http://www.w3.org/2000/svg">
<path d="M14.9119 14.3875L13.9655 8.93032H14.2852C14.5423 8.93032 14.7494 8.72317 14.7494 8.46603V5.03746C14.7494 4.78032 14.5423 4.57317 14.2852 4.57317H9.8923V1.32317C9.8923 1.06603 9.68516 0.858887 9.42801 0.858887H6.57087C6.31373 0.858887 6.10659 1.06603 6.10659 1.32317V4.57317H1.71373C1.45659 4.57317 1.24944 4.78032 1.24944 5.03746V8.46603C1.24944 8.72317 1.45659 8.93032 1.71373 8.93032H2.03337L1.08694 14.3875C1.07534 14.4541 1.07847 14.5225 1.09611 14.5877C1.11374 14.653 1.14545 14.7137 1.18902 14.7654C1.23258 14.8171 1.28694 14.8587 1.34828 14.8872C1.40962 14.9157 1.47645 14.9304 1.54409 14.9303H14.4548C14.4816 14.9303 14.5084 14.9285 14.5334 14.9232C14.5935 14.9131 14.651 14.8912 14.7027 14.8587C14.7543 14.8263 14.799 14.7839 14.8342 14.7341C14.8694 14.6843 14.8944 14.6281 14.9077 14.5686C14.9211 14.5091 14.9225 14.4475 14.9119 14.3875ZM2.49944 5.82317H7.35659V2.10889H8.6423V5.82317H13.4994V7.68032H2.49944V5.82317ZM10.8566 13.6803V10.8946C10.8566 10.816 10.7923 10.7517 10.7137 10.7517H9.85659C9.77801 10.7517 9.71373 10.816 9.71373 10.8946V13.6803H6.28516V10.8946C6.28516 10.816 6.22087 10.7517 6.1423 10.7517H5.28516C5.20659 10.7517 5.1423 10.816 5.1423 10.8946V13.6803H2.47801L3.28337 9.03746H12.7137L13.5191 13.6803H10.8566Z"/>
</svg>
