<svg width="18" height="6" viewBox="0 0 18 6" fill="none" xmlns="http://www.w3.org/2000/svg">
<path fill-rule="evenodd" clip-rule="evenodd" d="M13.4469 3C13.4469 1.77203 14.4424 0.776565 15.6704 0.776565C16.8983 0.776565 17.8938 1.77203 17.8938 3C17.8938 4.22797 16.8983 5.22343 15.6704 5.22343C14.4424 5.22343 13.4469 4.22797 13.4469 3ZM6.77663 3C6.77663 1.77203 7.77209 0.776565 9.00006 0.776565C10.228 0.776565 11.2235 1.77203 11.2235 3C11.2235 4.22797 10.228 5.22343 9.00006 5.22343C7.77209 5.22343 6.77663 4.22797 6.77663 3Z"/>
<path d="M2.32976 0.776565C1.10179 0.776565 0.106325 1.77203 0.106325 3C0.106325 4.22797 1.10179 5.22344 2.32976 5.22344C3.55773 5.22344 4.55319 4.22797 4.55319 3C4.55319 1.77203 3.55773 0.776565 2.32976 0.776565Z"/>
</svg>
