<svg width="16" height="18" viewBox="0 0 16 18" fill="none" xmlns="http://www.w3.org/2000/svg">
<path d="M13.9821 1.61931H12.7609V1.22993C12.7609 0.875955 12.4777 0.592773 12.1237 0.592773C11.7697 0.592773 11.4865 0.875955 11.4865 1.22993V1.637H8.65473V1.22993C8.65473 0.875955 8.37155 0.592773 8.01757 0.592773C7.66359 0.592773 7.38041 0.875955 7.38041 1.22993V1.637H4.5309V1.22993C4.5309 0.875955 4.24772 0.592773 3.89374 0.592773C3.53977 0.592773 3.25659 0.875955 3.25659 1.22993V1.637H2.03537C0.920339 1.637 0 2.55734 0 3.67237V15.3713C0 16.4863 0.920339 17.4067 2.03537 17.4067H13.9644C15.0794 17.4067 15.9997 16.4863 15.9997 15.3713V3.65467C16.0174 2.53964 15.1148 1.61931 13.9821 1.61931ZM2.05306 2.89362H3.27428V3.30069C3.27428 3.65467 3.55746 3.93785 3.91144 3.93785C4.26542 3.93785 4.5486 3.65467 4.5486 3.30069V2.89362H7.39811V3.30069C7.39811 3.65467 7.68129 3.93785 8.03527 3.93785C8.38925 3.93785 8.67243 3.65467 8.67243 3.30069V2.89362H11.5219V3.30069C11.5219 3.65467 11.8051 3.93785 12.1591 3.93785C12.5131 3.93785 12.7963 3.65467 12.7963 3.30069V2.89362H14.0175C14.4422 2.89362 14.7962 3.2476 14.7962 3.67237V4.87589H1.27432V3.67237C1.27432 3.2299 1.62829 2.89362 2.05306 2.89362ZM13.9821 16.15H2.05306C1.62829 16.15 1.27432 15.7961 1.27432 15.3713V6.13251H14.7431V15.3713C14.7608 15.7961 14.4068 16.15 13.9821 16.15Z"/>
<path d="M4.83139 7.40723H3.29159C3.00841 7.40723 2.77832 7.63731 2.77832 7.92049V8.46916C2.77832 8.75234 3.00841 8.98242 3.29159 8.98242H4.83139C5.11457 8.98242 5.34465 8.75234 5.34465 8.46916V7.92049C5.34465 7.63731 5.11457 7.40723 4.83139 7.40723Z"/>
<path d="M12.7258 7.40723H11.2037C10.9205 7.40723 10.6904 7.63731 10.6904 7.92049V8.46916C10.6904 8.75234 10.9205 8.98242 11.2037 8.98242H12.7435C13.0267 8.98242 13.2568 8.75234 13.2568 8.46916V7.92049C13.2568 7.63731 13.0267 7.40723 12.7258 7.40723Z"/>
<path d="M8.77865 7.40723H7.23885C6.95567 7.40723 6.72559 7.63731 6.72559 7.92049V8.46916C6.72559 8.75234 6.95567 8.98242 7.23885 8.98242H8.77865C9.06183 8.98242 9.29192 8.75234 9.29192 8.46916V7.92049C9.29192 7.63731 9.06183 7.40723 8.77865 7.40723Z"/>
<path d="M4.83139 10.3799H3.29159C3.00841 10.3799 2.77832 10.61 2.77832 10.8931V11.4418C2.77832 11.725 3.00841 11.9551 3.29159 11.9551H4.83139C5.11457 11.9551 5.34465 11.725 5.34465 11.4418V10.8931C5.34465 10.61 5.11457 10.3799 4.83139 10.3799Z"/>
<path d="M12.7258 10.3799H11.2037C10.9205 10.3799 10.6904 10.61 10.6904 10.8931V11.4418C10.6904 11.725 10.9205 11.9551 11.2037 11.9551H12.7435C13.0267 11.9551 13.2568 11.725 13.2568 11.4418V10.8931C13.2568 10.61 13.0267 10.3799 12.7258 10.3799Z"/>
<path d="M8.77865 10.3799H7.23885C6.95567 10.3799 6.72559 10.61 6.72559 10.8931V11.4418C6.72559 11.725 6.95567 11.9551 7.23885 11.9551H8.77865C9.06183 11.9551 9.29192 11.725 9.29192 11.4418V10.8931C9.29192 10.61 9.06183 10.3799 8.77865 10.3799Z"/>
<path d="M4.83139 13.3711H3.29159C3.00841 13.3711 2.77832 13.6012 2.77832 13.8844V14.433C2.77832 14.7162 3.00841 14.9463 3.29159 14.9463H4.83139C5.11457 14.9463 5.34465 14.7162 5.34465 14.433V13.8844C5.34465 13.6012 5.11457 13.3711 4.83139 13.3711Z"/>
<path d="M12.7258 13.3711H11.2037C10.9205 13.3711 10.6904 13.6012 10.6904 13.8844V14.433C10.6904 14.7162 10.9205 14.9463 11.2037 14.9463H12.7435C13.0267 14.9463 13.2568 14.7162 13.2568 14.433V13.8844C13.2568 13.6012 13.0267 13.3711 12.7258 13.3711Z"/>
<path d="M8.77865 13.3711H7.23885C6.95567 13.3711 6.72559 13.6012 6.72559 13.8844V14.433C6.72559 14.7162 6.95567 14.9463 7.23885 14.9463H8.77865C9.06183 14.9463 9.29192 14.7162 9.29192 14.433V13.8844C9.29192 13.6012 9.06183 13.3711 8.77865 13.3711Z"/>
</svg>
