<svg width="14" height="16" viewBox="0 0 14 16" fill="none" xmlns="http://www.w3.org/2000/svg">
<path d="M13.1179 4.01071L9.27507 0.167857C9.16793 0.0607143 9.02328 0 8.8715 0H1.28578C0.969713 0 0.714355 0.255357 0.714355 0.571429V15.4286C0.714355 15.7446 0.969713 16 1.28578 16H12.7144C13.0304 16 13.2858 15.7446 13.2858 15.4286V4.41607C13.2858 4.26429 13.2251 4.11786 13.1179 4.01071ZM11.9679 4.67857H8.60721V1.31786L11.9679 4.67857ZM12.0001 14.7143H2.00007V1.28571H7.39293V5.14286C7.39293 5.34177 7.47195 5.53254 7.6126 5.67319C7.75325 5.81384 7.94402 5.89286 8.14293 5.89286H12.0001V14.7143ZM6.85721 9.89286H3.5715C3.49293 9.89286 3.42864 9.95714 3.42864 10.0357V10.8929C3.42864 10.9714 3.49293 11.0357 3.5715 11.0357H6.85721C6.93578 11.0357 7.00007 10.9714 7.00007 10.8929V10.0357C7.00007 9.95714 6.93578 9.89286 6.85721 9.89286ZM3.42864 7.60714V8.46429C3.42864 8.54286 3.49293 8.60714 3.5715 8.60714H10.4286C10.5072 8.60714 10.5715 8.54286 10.5715 8.46429V7.60714C10.5715 7.52857 10.5072 7.46429 10.4286 7.46429H3.5715C3.49293 7.46429 3.42864 7.52857 3.42864 7.60714Z"/>
</svg>
