<svg width="5" height="16" viewBox="0 0 5 16" fill="none" xmlns="http://www.w3.org/2000/svg">
<path fill-rule="evenodd" clip-rule="evenodd" d="M2.3934 12C3.47631 12 4.35419 12.8954 4.35419 14C4.35419 15.1046 3.47631 16 2.3934 16C1.31049 16 0.432617 15.1046 0.432617 14C0.432617 12.8954 1.31049 12 2.3934 12ZM2.3934 6C3.47631 6 4.35419 6.89543 4.35419 8C4.35419 9.10457 3.47631 10 2.3934 10C1.31049 10 0.432617 9.10457 0.432617 8C0.432617 6.89543 1.31049 6 2.3934 6Z"/>
<path d="M4.35419 2C4.35419 0.895431 3.47631 0 2.3934 0C1.31049 0 0.432617 0.895431 0.432617 2C0.432617 3.10457 1.31049 4 2.3934 4C3.47631 4 4.35419 3.10457 4.35419 2Z"/>
</svg>
