<svg width="11" height="20" viewBox="0 0 11 20" fill="none" xmlns="http://www.w3.org/2000/svg">
<path d="M5.09675 20C2.28642 20 0 17.7133 0 14.903V4.62144C0 2.44083 1.77384 0.666992 3.95444 0.666992C6.13531 0.666992 7.90914 2.44083 7.90914 4.62144V14.903C7.90914 16.4539 6.64764 17.7154 5.09675 17.7154C3.54587 17.7154 2.28436 16.4539 2.28436 14.903V5.76452C2.28436 5.47334 2.52044 5.23726 2.81162 5.23726C3.1028 5.23726 3.33888 5.47334 3.33888 5.76452V14.903C3.33888 15.872 4.12745 16.6609 5.09675 16.6609C6.0658 16.6609 6.85463 15.872 6.85463 14.903V4.62144C6.85463 3.02241 5.55373 1.72151 3.95444 1.72151C2.35542 1.72151 1.05452 3.02241 1.05452 4.62144V14.903C1.05452 17.132 2.86774 18.9455 5.09675 18.9455C7.32576 18.9455 9.13873 17.132 9.13873 14.903V5.76452C9.13873 5.47334 9.37455 5.23726 9.66599 5.23726C9.95742 5.23726 10.1932 5.47334 10.1932 5.76452V14.903C10.1932 17.7133 7.90709 20 5.09675 20Z" fill="black"/>
</svg>
