<svg width="18" height="18" viewBox="0 0 18 18" fill="none" xmlns="http://www.w3.org/2000/svg">
<path d="M9.00008 0.666748C4.40008 0.666748 0.666748 4.40008 0.666748 9.00008C0.666748 13.6001 4.40008 17.3334 9.00008 17.3334H13.1667V15.6667H9.00008C5.38341 15.6667 2.33341 12.6167 2.33341 9.00008C2.33341 5.38341 5.38341 2.33341 9.00008 2.33341C12.6167 2.33341 15.6667 5.38341 15.6667 9.00008V10.1917C15.6667 10.8501 15.0751 11.5001 14.4167 11.5001C13.7584 11.5001 13.1667 10.8501 13.1667 10.1917V9.00008C13.1667 6.70008 11.3001 4.83341 9.00008 4.83341C6.70008 4.83341 4.83341 6.70008 4.83341 9.00008C4.83341 11.3001 6.70008 13.1667 9.00008 13.1667C10.1501 13.1667 11.2001 12.7001 11.9501 11.9417C12.4917 12.6834 13.4251 13.1667 14.4167 13.1667C16.0584 13.1667 17.3334 11.8334 17.3334 10.1917V9.00008C17.3334 4.40008 13.6001 0.666748 9.00008 0.666748ZM9.00008 11.5001C7.61675 11.5001 6.50008 10.3834 6.50008 9.00008C6.50008 7.61675 7.61675 6.50008 9.00008 6.50008C10.3834 6.50008 11.5001 7.61675 11.5001 9.00008C11.5001 10.3834 10.3834 11.5001 9.00008 11.5001Z" fill="#0A2896"/>
</svg>
