<svg width="11" height="16" viewBox="0 0 11 16" fill="none" xmlns="http://www.w3.org/2000/svg">
<path fill-rule="evenodd" clip-rule="evenodd" d="M10.4173 0H3.91771C2.87112 0.022107 1.87486 0.453387 1.1425 1.20138C0.410144 1.94936 0 2.95452 0 4.00134C0 5.04816 0.410144 6.05331 1.1425 6.8013C1.87486 7.54929 2.87112 7.98057 3.91771 8.00268H5.41899V15.5002C5.41899 15.6327 5.47166 15.7599 5.56539 15.8536C5.65913 15.9473 5.78626 16 5.91883 16C6.05139 16 6.17852 15.9473 6.27226 15.8536C6.366 15.7599 6.41866 15.6327 6.41866 15.5002V0.999665H8.41977V15.5002C8.4274 15.6278 8.48347 15.7477 8.57654 15.8354C8.66961 15.923 8.79264 15.9719 8.9205 15.9719C9.04836 15.9719 9.17139 15.923 9.26446 15.8354C9.35753 15.7477 9.4136 15.6278 9.42122 15.5002V1.99933C9.42122 1.7342 9.52655 1.47993 9.71402 1.29246C9.90149 1.10499 10.1558 0.999665 10.4209 0.999665C10.5535 0.999665 10.6806 0.947004 10.7743 0.853268C10.8681 0.759531 10.9207 0.632396 10.9207 0.499833C10.9207 0.367269 10.8681 0.240134 10.7743 0.146398C10.6806 0.0526607 10.5535 0 10.4209 0H10.4173Z"/>
</svg>
