<svg width="12" height="12" viewBox="0 0 12 12" xmlns="http://www.w3.org/2000/svg">
<path fill-rule="evenodd" clip-rule="evenodd" d="M5.14286 5.14286H0.857142C0.383755 5.14286 0 5.52661 0 6C0 6.47339 0.383756 6.85714 0.857143 6.85714H5.14286V11.1429C5.14286 11.6162 5.52661 12 6 12C6.47339 12 6.85714 11.6162 6.85714 11.1429V6.85714H11.1429C11.6162 6.85714 12 6.47339 12 6C12 5.52661 11.6162 5.14286 11.1429 5.14286H6.85714V0.857142C6.85714 0.383755 6.47339 0 6 0C5.52661 0 5.14286 0.383756 5.14286 0.857143V5.14286Z"/>
</svg>
