<svg width="14" height="14" viewBox="0 0 14 14" xmlns="http://www.w3.org/2000/svg">
<path d="M0.857422 2.26982L1.73867 2.95889C2.94023 1.42295 4.80898 0.437012 6.90742 0.437012C10.5309 0.437012 13.4637 3.3667 13.4684 6.9917C13.473 10.6198 10.534 13.562 6.90742 13.562C4.07461 13.562 1.66055 11.7651 0.741796 9.24795C0.718359 9.18233 0.752734 9.10889 0.818359 9.08701L1.7043 8.78232C1.73518 8.77174 1.76899 8.77366 1.79848 8.78767C1.82797 8.80169 1.85081 8.82669 1.86211 8.85733C1.89023 8.93545 1.92148 9.01357 1.9543 9.09014C2.22461 9.73076 2.61211 10.3058 3.10586 10.7995C3.59562 11.2902 4.1755 11.6817 4.81367 11.9526C5.47461 12.2323 6.1793 12.3745 6.9043 12.3745C7.63086 12.3745 8.33398 12.2323 8.99492 11.9526C9.63371 11.6829 10.2138 11.2912 10.7027 10.7995C11.1938 10.3098 11.5849 9.72923 11.8543 9.09014C12.134 8.42764 12.2762 7.72451 12.2762 6.99795C12.2762 6.27139 12.134 5.56826 11.8543 4.90576C11.584 4.26514 11.1965 3.69014 10.7027 3.19639C10.209 2.70264 9.63398 2.31514 8.99492 2.04326C8.33398 1.76357 7.6293 1.62139 6.9043 1.62139C6.17773 1.62139 5.47461 1.76357 4.81367 2.04326C4.17488 2.31302 3.5948 2.7047 3.10586 3.19639C2.95117 3.35107 2.80586 3.51514 2.67148 3.68701L3.61211 4.42139C3.63072 4.43578 3.64489 4.45514 3.65299 4.47723C3.66109 4.49933 3.66278 4.52326 3.65789 4.54627C3.65299 4.56928 3.6417 4.59045 3.62531 4.60733C3.60892 4.62421 3.58809 4.63613 3.56523 4.6417L0.821484 5.31357C0.743359 5.33232 0.666797 5.27295 0.666797 5.19326L0.654297 2.3667C0.655859 2.26357 0.776172 2.20576 0.857422 2.26982Z"/>
</svg>
