<svg width="15" height="15" viewBox="0 0 15 15" fill="none" xmlns="http://www.w3.org/2000/svg">
<path d="M6.55671e-07 7.5C7.8535e-07 6.01664 0.439869 4.56659 1.26398 3.33323C2.08809 2.09986 3.25943 1.13856 4.62988 0.570907C6.00032 0.00324934 7.50832 -0.145276 8.96318 0.144114C10.418 0.433503 11.7544 1.14781 12.8033 2.1967C13.8522 3.2456 14.5665 4.58197 14.8559 6.03682C15.1453 7.49168 14.9968 8.99968 14.4291 10.3701C13.8614 11.7406 12.9001 12.9119 11.6668 13.736C10.4334 14.5601 8.98336 15 7.5 15C7.28828 15 7.08523 14.9159 6.93552 14.7662C6.78581 14.6165 6.7017 14.4134 6.7017 14.2017C6.7017 13.99 6.78581 13.7869 6.93552 13.6372C7.08523 13.4875 7.28828 13.4034 7.5 13.4034C8.66758 13.4034 9.80894 13.0572 10.7798 12.4085C11.7506 11.7598 12.5072 10.8378 12.954 9.75914C13.4008 8.68043 13.5178 7.49345 13.29 6.3483C13.0622 5.20316 12.4999 4.15127 11.6743 3.32566C10.8487 2.50006 9.79685 1.93781 8.6517 1.71003C7.50655 1.48224 6.31957 1.59915 5.24086 2.04597C4.16216 2.49278 3.24017 3.24943 2.5915 4.22024C1.94282 5.19105 1.59659 6.33242 1.59659 7.5C1.59659 7.71172 1.51249 7.91477 1.36278 8.06448C1.21307 8.21419 1.01002 8.2983 0.798298 8.2983C0.586576 8.2983 0.383527 8.21419 0.233818 8.06448C0.084108 7.91477 6.37161e-07 7.71172 6.55671e-07 7.5Z"/>
</svg>
