<svg width="16" height="16" viewBox="0 0 16 16" fill="none" xmlns="http://www.w3.org/2000/svg">
<path d="M8 0C12.4118 0 16 3.58827 16 8C16 12.4117 12.4118 16 8 16C3.58825 16 0 12.4117 0 8C0 3.58827 3.58825 0 8 0ZM8 1.10345C4.18461 1.10345 1.10345 4.18463 1.10345 8C1.10345 11.8153 4.18461 14.8966 8 14.8966C11.8154 14.8966 14.8966 11.8153 14.8966 8C14.8966 4.18463 11.8154 1.10345 8 1.10345ZM8 3.31034C8.30472 3.31034 8.55172 3.55735 8.55172 3.86207V8C8.55172 8.30472 8.30472 8.55172 8 8.55172H4.41379C4.10908 8.55172 3.86207 8.30472 3.86207 8C3.86207 7.69528 4.10908 7.44828 4.41379 7.44828H7.44828V3.86207C7.44828 3.55735 7.69528 3.31034 8 3.31034Z"/>
</svg>
