<svg width="16" height="18" viewBox="0 0 16 18" xmlns="http://www.w3.org/2000/svg">
<path d="M4.94587 2.40888H4.78516C4.87355 2.40888 4.94587 2.33656 4.94587 2.24817V2.40888H11.053V2.24817C11.053 2.33656 11.1253 2.40888 11.2137 2.40888H11.053V3.85531H12.4994V2.24817C12.4994 1.53902 11.9229 0.962456 11.2137 0.962456H4.78516C4.07601 0.962456 3.49944 1.53902 3.49944 2.24817V3.85531H4.94587V2.40888ZM15.0709 3.85531H0.928014C0.572433 3.85531 0.285156 4.14259 0.285156 4.49817V5.14103C0.285156 5.22942 0.357478 5.30174 0.445871 5.30174H1.65926L2.15547 15.8084C2.18761 16.4935 2.75413 17.0339 3.43917 17.0339H12.5597C13.2468 17.0339 13.8113 16.4955 13.8434 15.8084L14.3396 5.30174H15.553C15.6414 5.30174 15.7137 5.22942 15.7137 5.14103V4.49817C15.7137 4.14259 15.4265 3.85531 15.0709 3.85531ZM12.405 15.5875H3.59386L3.1077 5.30174H12.8912L12.405 15.5875Z"/>
</svg>
