<svg width="22" height="22" viewBox="0 0 22 22" fill="none" xmlns="http://www.w3.org/2000/svg">
<path d="M20.2805 17.7361C19.7752 16.5392 19.0419 15.4521 18.1216 14.5352C17.204 13.6156 16.117 12.8825 14.9207 12.3762C14.9099 12.3709 14.8992 12.3682 14.8885 12.3628C16.5573 11.1575 17.6421 9.1941 17.6421 6.97892C17.6421 3.30927 14.6689 0.33606 10.9992 0.33606C7.32959 0.33606 4.35637 3.30927 4.35637 6.97892C4.35637 9.1941 5.44119 11.1575 7.10994 12.3655C7.09923 12.3709 7.08852 12.3736 7.0778 12.3789C5.8778 12.8852 4.80102 13.6111 3.87691 14.5378C2.95738 15.4554 2.22424 16.5424 1.71798 17.7387C1.22063 18.91 0.952396 20.1656 0.927801 21.4378C0.927086 21.4664 0.932101 21.4949 0.942549 21.5215C0.952997 21.5481 0.968668 21.5724 0.988638 21.5928C1.00861 21.6133 1.03247 21.6296 1.05883 21.6407C1.08518 21.6518 1.11349 21.6575 1.14209 21.6575H2.74923C2.86709 21.6575 2.96084 21.5637 2.96352 21.4486C3.01709 19.3807 3.84744 17.4441 5.3153 15.9762C6.83405 14.4575 8.85102 13.6218 10.9992 13.6218C13.1474 13.6218 15.1644 14.4575 16.6832 15.9762C18.151 17.4441 18.9814 19.3807 19.0349 21.4486C19.0376 21.5664 19.1314 21.6575 19.2492 21.6575H20.8564C20.885 21.6575 20.9133 21.6518 20.9396 21.6407C20.966 21.6296 20.9899 21.6133 21.0098 21.5928C21.0298 21.5724 21.0455 21.5481 21.0559 21.5215C21.0664 21.4949 21.0714 21.4664 21.0707 21.4378C21.0439 20.1575 20.7787 18.912 20.2805 17.7361ZM10.9992 11.5861C9.76977 11.5861 8.61262 11.1066 7.74209 10.2361C6.87155 9.36553 6.39209 8.20838 6.39209 6.97892C6.39209 5.74945 6.87155 4.59231 7.74209 3.72177C8.61262 2.85124 9.76977 2.37177 10.9992 2.37177C12.2287 2.37177 13.3858 2.85124 14.2564 3.72177C15.1269 4.59231 15.6064 5.74945 15.6064 6.97892C15.6064 8.20838 15.1269 9.36553 14.2564 10.2361C13.3858 11.1066 12.2287 11.5861 10.9992 11.5861Z"/>
</svg>
