<svg width="22" height="14" viewBox="0 0 22 14" fill="none" xmlns="http://www.w3.org/2000/svg">
  <g clip-path="url(#clip0_4164_9341)">
    <path d="M4.30046 0.125H9.78138C10.5465 0.125 11.0223 0.748648 10.8439 1.51633L8.29208 12.4721C8.11204 13.2371 7.34591 13.8612 6.58038 13.8612H1.09989C0.335904 13.8612 -0.141049 13.2371 0.0374434 12.4721L2.5903 1.51633C2.76879 0.748648 3.53441 0.125 4.30046 0.125Z" fill="#E21836"/>
    <path d="M9.32544 0.125H15.6284C16.3934 0.125 16.0485 0.748648 15.8685 1.51633L13.3171 12.4721C13.1381 13.2371 13.1939 13.8612 12.4274 13.8612H6.12444C5.35788 13.8612 4.8835 13.2371 5.06354 12.4721L7.61477 1.51633C7.79592 0.748648 8.55999 0.125 9.32544 0.125Z" fill="#00447C"/>
    <path d="M15.3784 0.125H20.8594C21.6256 0.125 22.1014 0.748648 21.9215 1.51633L19.3701 12.4721C19.19 13.2371 18.4235 13.8612 17.6573 13.8612H12.179C11.4124 13.8612 10.9369 13.2371 11.1165 12.4721L13.6683 1.51633C13.8468 0.748648 14.6119 0.125 15.3784 0.125Z" fill="#007B84"/>
    <path d="M5.73188 3.63604C5.1683 3.64179 5.00184 3.63604 4.94864 3.62349C4.92819 3.7206 4.54783 5.4751 4.5468 5.47656C4.4649 5.83148 4.40535 6.08457 4.20288 6.24793C4.08807 6.34289 3.95392 6.38879 3.79837 6.38879C3.54847 6.38879 3.4028 6.26461 3.37839 6.02922L3.37367 5.94844C3.37367 5.94844 3.44981 5.47295 3.44981 5.47029C3.44981 5.47029 3.84899 3.87142 3.92049 3.6601C3.92427 3.64807 3.9253 3.64179 3.92625 3.63604C3.14929 3.64291 3.01153 3.63604 3.00207 3.62349C2.99683 3.64068 2.97758 3.73985 2.97758 3.73985L2.56998 5.54196L2.535 5.69475L2.46729 6.19465C2.46729 6.34289 2.49642 6.46398 2.55434 6.56633C2.74005 6.89083 3.26977 6.93947 3.56943 6.93947C3.95546 6.93947 4.31769 6.8574 4.56244 6.70761C4.98723 6.45668 5.09843 6.06429 5.19752 5.71555L5.2435 5.53671C5.2435 5.53671 5.65471 3.87614 5.72457 3.6601C5.72715 3.64807 5.72827 3.64179 5.73188 3.63604ZM7.13094 4.97563C7.03186 4.97563 6.85079 4.99969 6.68802 5.07944C6.62898 5.10978 6.57312 5.14475 6.51417 5.17964L6.56736 4.98766L6.53823 4.95535C6.19319 5.02521 6.11593 5.03458 5.79719 5.07944L5.77055 5.09723C5.73351 5.40403 5.7006 5.63477 5.56344 6.23797C5.51089 6.46109 5.45726 6.68395 5.40257 6.90656L5.41718 6.93466C5.74391 6.91747 5.843 6.91747 6.12693 6.92211L6.14988 6.89719C6.18597 6.71243 6.19061 6.66911 6.27054 6.29486C6.30809 6.11748 6.38638 5.72767 6.42496 5.58888C6.49586 5.55597 6.5659 5.52365 6.63268 5.52365C6.79183 5.52365 6.77241 5.66244 6.76631 5.71779C6.75943 5.8106 6.70151 6.11387 6.64204 6.37426L6.60234 6.54227C6.57475 6.66645 6.54442 6.78702 6.51675 6.91008L6.52878 6.93466C6.8507 6.91747 6.94893 6.91747 7.22384 6.92211L7.25615 6.89719C7.30591 6.60861 7.32043 6.53136 7.40861 6.11121L7.45295 5.91819C7.53914 5.54032 7.58246 5.34877 7.51723 5.19271C7.44831 5.01782 7.28279 4.97563 7.13094 4.97563ZM8.69397 5.3712C8.52279 5.40411 8.41364 5.42594 8.30519 5.44012C8.19768 5.45731 8.09275 5.47304 7.92741 5.49598L7.91426 5.50784L7.90223 5.51729C7.88504 5.64053 7.87301 5.747 7.85015 5.87221C7.83082 6.00164 7.801 6.14876 7.75253 6.36008C7.71497 6.52182 7.69564 6.57819 7.67424 6.63508C7.65336 6.69206 7.63041 6.7474 7.58822 6.90647L7.5981 6.92117L7.60635 6.93466C7.76095 6.92736 7.8621 6.92211 7.966 6.92117C8.06981 6.91747 8.1774 6.92117 8.34378 6.92203L8.35839 6.91025L8.37403 6.89711C8.39809 6.75359 8.40161 6.715 8.41631 6.64505C8.43092 6.56994 8.45601 6.46604 8.51763 6.18838C8.54676 6.05801 8.57916 5.92799 8.60941 5.79496C8.64078 5.66244 8.67361 5.53199 8.70489 5.40154L8.70025 5.38581L8.69397 5.3712ZM8.69758 4.83787C8.54204 4.74609 8.26918 4.77522 8.08545 4.90198C7.90232 5.02625 7.88143 5.20259 8.03646 5.29557C8.18926 5.38478 8.46323 5.35822 8.64533 5.23035C8.82812 5.10342 8.85098 4.92871 8.69758 4.83787ZM9.638 6.96345C9.95261 6.96345 10.2751 6.87665 10.5179 6.61944C10.7047 6.41079 10.7903 6.10029 10.82 5.97242C10.9165 5.54866 10.8413 5.35083 10.7469 5.23035C10.6034 5.04661 10.3498 4.98766 10.0868 4.98766C9.92864 4.98766 9.55189 5.0033 9.25755 5.27469C9.04614 5.47037 8.94852 5.736 8.88965 5.99055C8.83018 6.25008 8.76178 6.71707 9.19129 6.89092C9.32381 6.94781 9.51485 6.96345 9.638 6.96345ZM9.61342 6.00997C9.68595 5.68908 9.77163 5.41975 9.99017 5.41975C10.1614 5.41975 10.1739 5.62016 10.0978 5.94208C10.0841 6.01358 10.0216 6.2793 9.93706 6.39239C9.87793 6.47593 9.80815 6.52654 9.73081 6.52654C9.70786 6.52654 9.57122 6.52654 9.56907 6.32364C9.56804 6.22344 9.5885 6.12109 9.61342 6.00997ZM11.6064 6.9222L11.631 6.89719C11.6659 6.71243 11.6716 6.66903 11.7488 6.29494C11.7875 6.11748 11.8674 5.72775 11.9049 5.58888C11.9759 5.55588 12.0448 5.52357 12.1137 5.52357C12.2717 5.52357 12.2525 5.66236 12.2462 5.7177C12.2404 5.81068 12.1824 6.11379 12.1219 6.37418L12.0844 6.54218C12.0557 6.66645 12.0244 6.78693 11.9967 6.91017L12.0088 6.93475C12.3319 6.91756 12.4262 6.91756 12.7028 6.9222L12.7362 6.89719C12.7847 6.60844 12.7978 6.53127 12.8887 6.11121L12.9319 5.91811C13.0185 5.54024 13.0623 5.34886 12.9982 5.19279C12.9273 5.01791 12.7608 4.97571 12.611 4.97571C12.5117 4.97571 12.3297 4.99961 12.1679 5.07953C12.1101 5.10978 12.0521 5.14467 11.9952 5.17973L12.0448 4.98775L12.0181 4.95526C11.6732 5.02522 11.5944 5.03458 11.2761 5.07953L11.2516 5.09723C11.213 5.40411 11.1816 5.63468 11.0444 6.23805C10.9919 6.46113 10.9383 6.68397 10.8837 6.90656L10.8983 6.93475C11.2254 6.91756 11.3231 6.91756 11.6064 6.9222ZM13.9798 6.93466C14.0001 6.83549 14.1208 6.24802 14.1218 6.24802C14.1218 6.24802 14.2245 5.81687 14.2308 5.80123C14.2308 5.80123 14.2632 5.75637 14.2955 5.73858H14.343C14.7918 5.73858 15.2985 5.73858 15.6956 5.44639C15.9659 5.24599 16.1507 4.95011 16.2331 4.59046C16.2545 4.50229 16.2702 4.39744 16.2702 4.2926C16.2702 4.15484 16.2426 4.01854 16.1627 3.91207C15.9602 3.62873 15.5569 3.62349 15.0912 3.62134L14.8618 3.62349C14.2658 3.63088 14.0268 3.62873 13.9286 3.6167C13.9203 3.6601 13.9047 3.73736 13.9047 3.73736C13.9047 3.73736 13.6912 4.72675 13.6912 4.7283L13.1563 6.93105C13.6766 6.92478 13.89 6.92478 13.9798 6.93466ZM14.3754 5.17707C14.3754 5.17707 14.6023 4.18964 14.6012 4.19343L14.6086 4.14272L14.6118 4.10422L14.7025 4.1135C14.7025 4.1135 15.1707 4.15372 15.1816 4.15475C15.3663 4.22625 15.4425 4.4105 15.3894 4.65096C15.3408 4.87079 15.1983 5.05555 15.0151 5.14475C14.8643 5.22038 14.6795 5.22665 14.4892 5.22665H14.366L14.3754 5.17707ZM15.7885 6.02828C15.7286 6.28394 15.6596 6.75101 16.087 6.91747C16.2233 6.97539 16.3454 6.99267 16.4694 6.9864C16.6006 6.97935 16.722 6.91361 16.8345 6.81899L16.804 6.93578L16.8234 6.9607C17.1308 6.94781 17.2262 6.94781 17.5592 6.95039L17.5894 6.92736C17.638 6.64144 17.6839 6.36386 17.8103 5.81687C17.8718 5.55493 17.9333 5.29549 17.9964 5.03458L17.9866 5.00588C17.6427 5.06956 17.5509 5.08322 17.22 5.13006L17.1949 5.15051C17.1916 5.17715 17.188 5.20268 17.1849 5.2282C17.1335 5.1451 17.0589 5.07411 16.9439 5.02994C16.7968 4.97202 16.4513 5.04661 16.1544 5.31697C15.9456 5.51007 15.8454 5.77459 15.7885 6.02828ZM16.5108 6.04392C16.5844 5.7287 16.6689 5.46212 16.888 5.46212C17.0266 5.46212 17.0995 5.58991 17.0847 5.80793C17.072 5.86688 17.0588 5.92572 17.0451 5.98445C17.0232 6.07812 16.9995 6.17093 16.9764 6.26392C16.9528 6.32751 16.9254 6.3875 16.8954 6.42746C16.839 6.50738 16.7049 6.55688 16.6276 6.55688C16.6057 6.55688 16.4705 6.55688 16.4659 6.3575C16.4648 6.25833 16.4852 6.15615 16.5108 6.04392ZM20.2822 5.0033L20.2556 4.97296C19.9153 5.04189 19.8537 5.05289 19.5412 5.09508L19.5181 5.11803C19.5171 5.12181 19.5162 5.12748 19.5145 5.13272L19.5135 5.12757C19.2808 5.6645 19.2876 5.54866 19.0982 5.9713C19.0971 5.95205 19.097 5.94011 19.096 5.91965L19.0486 5.0033L19.0188 4.97296C18.6624 5.04189 18.654 5.05289 18.3248 5.09508L18.2991 5.11803C18.2955 5.12903 18.2955 5.14106 18.2934 5.15412L18.2955 5.15885C18.3367 5.36905 18.3268 5.32213 18.368 5.65402C18.3873 5.81687 18.413 5.98067 18.4322 6.14154C18.4646 6.4107 18.4829 6.54322 18.5225 6.95408C18.3002 7.32086 18.2476 7.45974 18.0335 7.78166L18.035 7.78484L17.8843 8.02323C17.8671 8.04832 17.8515 8.06551 17.8296 8.0729C17.8055 8.08476 17.7742 8.08691 17.7308 8.08691H17.6473L17.5232 8.49975L17.949 8.50706C18.1989 8.50603 18.356 8.38915 18.4406 8.23206L18.7084 7.77324H18.7041L18.7322 7.74093C18.9124 7.35326 20.2822 5.0033 20.2822 5.0033ZM15.7885 10.4249H15.6079L16.2765 8.21375H16.4982L16.5687 7.98602L16.5754 8.23928C16.5671 8.39586 16.6903 8.53465 17.0138 8.5117H17.3881L17.5168 8.08597H17.3761C17.2951 8.08597 17.2575 8.06551 17.2622 8.02168L17.2554 7.76396H16.5625V7.76533C16.3385 7.76997 15.6693 7.78682 15.5339 7.82291C15.37 7.86502 15.1973 7.98937 15.1973 7.98937L15.2652 7.76129H14.617L14.4819 8.21375L13.8044 10.4587H13.6729L13.544 10.8814H14.8351L14.7918 11.0224H15.4279L15.4702 10.8814H15.6486L15.7885 10.4249ZM15.2588 8.66304C15.155 8.69174 14.9619 8.77888 14.9619 8.77888L15.1337 8.21375H15.6486L15.5245 8.62548C15.5245 8.62548 15.3652 8.63493 15.2588 8.66304ZM15.2687 9.47033C15.2687 9.47033 15.107 9.4907 15.0005 9.51468C14.8957 9.54647 14.6989 9.64668 14.6989 9.64668L14.8764 9.05861H15.394L15.2687 9.47033ZM14.9801 10.4301H14.4636L14.6133 9.93379H15.1283L14.9801 10.4301ZM16.2242 9.05861H16.9689L16.8619 9.40519H16.1074L15.9941 9.784H16.6544L16.1544 10.4879C16.1194 10.5397 16.088 10.558 16.0531 10.5725C16.0182 10.5903 15.9722 10.6112 15.9191 10.6112H15.7359L15.6101 11.0261H16.0891C16.3381 11.0261 16.4852 10.9128 16.5938 10.7641L16.9367 10.2949L17.0102 10.7713C17.0259 10.8605 17.09 10.9128 17.1334 10.9331C17.1813 10.9571 17.2309 10.9984 17.301 11.0046C17.376 11.0078 17.4302 11.0103 17.4663 11.0103H17.7018L17.8431 10.5459H17.7502C17.697 10.5459 17.6051 10.537 17.5895 10.5203C17.5738 10.4999 17.5738 10.4688 17.5655 10.4211L17.4907 9.94368H17.1849L17.3191 9.784H18.0722L18.188 9.40519H17.4908L17.5993 9.05861H18.2945L18.4234 8.63124H16.3511L16.2242 9.05861ZM9.93491 10.5266L10.1087 9.9484H10.8231L10.9535 9.51837H10.2385L10.3477 9.1625H11.0463L11.1758 8.74605H9.42762L9.30086 9.1625H9.69807L9.59211 9.51829H9.19387L9.06187 9.95571H9.4589L9.22722 10.7207C9.19602 10.822 9.24191 10.8605 9.27104 10.9076C9.30086 10.9534 9.33103 10.9838 9.39892 11.001C9.46896 11.0166 9.51691 11.026 9.58205 11.026H10.3874L10.5309 10.5495L10.1739 10.5986C10.105 10.5986 9.91403 10.5904 9.93491 10.5266ZM10.0168 7.75872L9.83582 8.08588C9.79715 8.15729 9.76218 8.20172 9.73081 8.22209C9.70314 8.23928 9.64831 8.24658 9.56899 8.24658H9.47454L9.3483 8.6651H9.66197C9.81288 8.6651 9.92864 8.60984 9.98398 8.58217C10.0434 8.55037 10.0591 8.5685 10.105 8.52416L10.2109 8.43238H11.1905L11.3205 7.99668H10.6034L10.7286 7.75863L10.0168 7.75872ZM11.4629 10.535C11.4462 10.5109 11.4582 10.4686 11.4838 10.3804L11.7515 9.49431H12.7039C12.8427 9.49233 12.9428 9.4907 13.0081 9.48606C13.0781 9.47867 13.1542 9.45366 13.2371 9.4088C13.3228 9.36179 13.3667 9.31221 13.4036 9.25532C13.4449 9.1986 13.5112 9.07425 13.5681 8.88269L13.9046 7.76129L12.9163 7.76705C12.9163 7.76705 12.6119 7.81191 12.478 7.86158C12.3428 7.91684 12.1496 8.07127 12.1496 8.07127L12.2388 7.76387H11.6283L10.7736 10.5986C10.7432 10.7086 10.7229 10.7885 10.7182 10.8366C10.7167 10.8882 10.7835 10.9394 10.8268 10.978C10.8779 11.0166 10.9535 11.0103 11.0261 11.0166C11.1024 11.0224 11.2108 11.026 11.3606 11.026H11.8298L11.9738 10.5397L11.5538 10.5794C11.5089 10.5794 11.4765 10.5553 11.4629 10.535ZM11.9242 8.89584H12.9245L12.8609 9.09513C12.8521 9.09977 12.8307 9.08525 12.7288 9.09728H11.8626L11.9242 8.89584ZM12.1246 8.22725H13.1334L13.0608 8.46736C13.0608 8.46736 12.5854 8.46272 12.5093 8.47672C12.1741 8.53473 11.9784 8.71374 11.9784 8.71374L12.1246 8.22725ZM12.8834 9.76261C12.8751 9.79243 12.8619 9.81056 12.8437 9.82422C12.8234 9.83729 12.7904 9.84193 12.7415 9.84193H12.599L12.6074 9.59924H12.0144L11.9904 10.7859C11.9895 10.8715 11.9978 10.9211 12.0604 10.9608C12.1231 11.0103 12.3162 11.0167 12.576 11.0167H12.9475L13.0816 10.5724L12.7582 10.5902L12.6506 10.5965C12.636 10.5902 12.6219 10.5844 12.6063 10.5689C12.5927 10.5554 12.5697 10.5636 12.5735 10.478L12.576 10.1738L12.9151 10.1598C13.0984 10.1598 13.1766 10.1002 13.2434 10.0434C13.3071 9.98905 13.328 9.92657 13.352 9.84193L13.4089 9.5726H12.9428L12.8833 9.76252L12.8834 9.76261Z" fill="#FEFEFE"/>
  </g>
  <defs>
    <clipPath id="clip0_4164_9341">
      <rect width="22" height="13.75" fill="white" transform="translate(0 0.125)"/>
    </clipPath>
  </defs>
</svg>
