<svg width="53" height="17" viewBox="0 0 53 17" fill="white" xmlns="http://www.w3.org/2000/svg">
<g clip-path="url(#clip0_154_483)">
<path d="M22.9666 16.7547H18.6732L21.3586 0.298218H25.6518L22.9666 16.7547Z"/>
<path d="M38.5305 0.700616C37.6836 0.367644 36.3405 0 34.6796 0C30.4398 0 27.4541 2.24076 27.4358 5.44438C27.4006 7.808 29.5735 9.12081 31.1986 9.90891C32.8596 10.7142 33.4243 11.2399 33.4243 11.9577C33.4074 13.0602 32.0821 13.5684 30.846 13.5684C29.1319 13.5684 28.2134 13.3064 26.8177 12.693L26.2523 12.4301L25.6515 16.1242C26.6585 16.5788 28.5137 16.9823 30.4398 17C34.9447 17 37.8775 14.7939 37.9123 11.38C37.9294 9.5066 36.7821 8.07116 34.3085 6.8982C32.8068 6.14523 31.8872 5.63751 31.8872 4.86708C31.9048 4.1667 32.665 3.44933 34.3601 3.44933C35.7559 3.41419 36.7814 3.7467 37.5582 4.07944L37.9466 4.25419L38.5305 0.700616Z"/>
<path d="M44.2367 10.9247C44.5903 9.97933 45.9508 6.32035 45.9508 6.32035C45.933 6.35549 46.3037 5.3575 46.5157 4.74484L46.8158 6.16282C46.8158 6.16282 47.6288 10.102 47.8053 10.9247C47.1344 10.9247 45.0847 10.9247 44.2367 10.9247ZM49.5364 0.298218H46.2154C45.1913 0.298218 44.4133 0.59559 43.9714 1.66362L37.5942 16.7544H42.0991C42.0991 16.7544 42.8407 14.7233 43.0002 14.2859C43.4944 14.2859 47.8767 14.2859 48.5125 14.2859C48.6358 14.8636 49.0248 16.7544 49.0248 16.7544H53L49.5364 0.298218Z"/>
<path d="M15.0872 0.298218L10.8826 11.5199L10.4231 9.24405C9.6458 6.61796 7.20787 3.76477 4.48727 2.34608L8.33856 16.7372H12.8787L19.6271 0.298218H15.0872Z"/>
<path d="M6.97828 0.298218H0.0706676L0 0.630725C5.38837 1.99636 8.95699 5.28816 10.4232 9.24474L8.92153 1.68153C8.67431 0.630493 7.91457 0.332888 6.97828 0.298218Z"/>
</g>
<defs>
<clipPath id="clip0_154_483">
<rect width="53" height="17"/>
</clipPath>
</defs>
</svg>
