<svg width="43" height="28" viewBox="0 0 43 28" fill="none" xmlns="http://www.w3.org/2000/svg">
<g clip-path="url(#clip0_154_406)">
<path d="M27.1844 2.99475H15.5976V25.0051H27.1844V2.99475Z" fill="#FF5A00"/>
<path d="M16.369 14C16.369 9.52816 18.3572 5.55922 21.4082 2.99482C19.1628 1.12816 16.3304 0 13.2409 0C5.92196 0 0 6.26149 0 14C0 21.7385 5.92196 28 13.2409 28C16.3304 28 19.1628 26.8718 21.4082 25.0052C18.3529 22.477 16.369 18.4718 16.369 14Z" fill="#EB001B"/>
<path d="M42.8163 14C42.8163 21.7385 36.8944 28 29.5755 28C26.4859 28 23.6535 26.8718 21.4081 25.0052C24.4977 22.4362 26.4474 18.4718 26.4474 14C26.4474 9.52816 24.4591 5.55922 21.4081 2.99482C23.6492 1.12816 26.4817 0 29.5712 0C36.8944 0 42.8163 6.30227 42.8163 14Z" fill="#F79E1B"/>
</g>
<defs>
<clipPath id="clip0_154_406">
<rect width="43" height="28" fill="white"/>
</clipPath>
</defs>
</svg>
