<svg width="98" height="35" viewBox="0 0 98 35" fill="none" xmlns="http://www.w3.org/2000/svg">
<g clip-path="url(#clip0_174_376)">
<path d="M24.6606 14.3814H1.60991L0 18.8571H23.0507L24.6606 14.3814ZM27.1716 7.69981H4.12093L2.44665 12.1755H25.4984L27.1716 7.69981ZM29.6835 0.955202H6.63176L4.95747 5.43087H28.0092L29.6835 0.955202Z" fill="#49A9F8"/>
<path d="M39.8156 34.9552L31.1791 8.07729H37.2372L40.5888 19.7495C41.5555 23.2199 42.071 25.0493 42.7154 27.9521C43.2952 25.1756 43.6819 23.8508 44.7772 19.9386L48.129 8.07729H53.9293L45.1639 34.9552H39.8156ZM62.991 34.9552V12.5877H55.059V8.07729H77.0996L75.5313 12.5877H68.5014V34.9552H62.991ZM84.2719 18.8195H87.3595C88.3095 18.8195 88.7844 18.8195 89.2593 18.6791C90.5418 18.3077 91.3494 17.1916 91.3494 15.6572C91.3494 13.8432 90.4952 13.0526 89.2593 12.6812C88.7367 12.5408 88.215 12.4951 87.1694 12.4951H84.2719V18.8195ZM84.3196 23.4693V30.5374H88.1192C89.2593 30.5374 90.3049 30.4448 91.0646 29.747C91.8243 29.0499 92.157 28.1657 92.157 27.0039C92.157 26.1198 91.9201 25.2823 91.445 24.6779C90.6376 23.7022 89.6399 23.4693 87.9291 23.4693H84.3196ZM93.1068 20.6327V20.7252C94.1524 21.0976 95.1491 21.7488 95.6719 22.1669C97.2871 23.4693 97.9999 25.1897 97.9999 27.422C97.9999 31.095 96.0046 33.7465 92.7275 34.5828C91.7298 34.8627 90.6842 34.9552 88.7365 34.9552H78.8092V8.07729H87.5964C89.4017 8.07729 90.6376 8.16984 91.7298 8.44867C94.9121 9.28596 97.0022 11.4257 97.0022 14.8199C97.0022 16.6331 96.3371 18.1683 95.2448 19.1909C94.7697 19.6558 94.1047 20.2144 93.1068 20.6327Z" fill="white"/>
</g>
<defs>
<clipPath id="clip0_174_376">
<rect width="98" height="34" fill="white" transform="matrix(1 0 0 -1 0 34.9552)"/>
</clipPath>
</defs>
</svg>
